<svg width="46" height="44" viewBox="0 0 46 44" fill="none" xmlns="http://www.w3.org/2000/svg">
<path d="M41.0176 22.4837L24.1426 4.56706C23.432 3.81098 22.067 3.81098 21.3564 4.56706L4.48138 22.4837C4.23893 22.7411 4.07974 23.0601 4.02307 23.4022C3.9664 23.7442 4.01468 24.0946 4.16207 24.411C4.30946 24.7274 4.54965 24.9962 4.85356 25.1848C5.15748 25.3735 5.5121 25.4739 5.87451 25.474H9.62451V38.0157C9.62451 38.4909 9.82205 38.9466 10.1737 39.2826C10.5253 39.6186 11.0022 39.8074 11.4995 39.8074H33.9995C34.4968 39.8074 34.9737 39.6186 35.3253 39.2826C35.677 38.9466 35.8745 38.4909 35.8745 38.0157V25.474H39.6245C39.9876 25.4755 40.3434 25.376 40.6483 25.1876C40.9533 24.9992 41.1943 24.7302 41.342 24.4132C41.4897 24.0962 41.5376 23.745 41.48 23.4024C41.4225 23.0598 41.2618 22.7406 41.0176 22.4837ZM22.7495 29.0574C21.2577 29.0574 19.8269 28.4911 18.772 27.4831C17.7171 26.475 17.1245 25.1079 17.1245 23.6824C17.1245 22.2568 17.7171 20.8897 18.772 19.8817C19.8269 18.8736 21.2577 18.3074 22.7495 18.3074C24.2414 18.3074 25.6721 18.8736 26.727 19.8817C27.7819 20.8897 28.3745 22.2568 28.3745 23.6824C28.3745 25.1079 27.7819 26.475 26.727 27.4831C25.6721 28.4911 24.2414 29.0574 22.7495 29.0574Z" fill="black"/>
</svg>
