<svg width="38" height="44" viewBox="0 0 38 44" fill="none" xmlns="http://www.w3.org/2000/svg">
<path d="M33.6619 26.7082L30.5385 23.3478V18.8963C30.5349 15.82 29.4712 12.8544 27.553 10.573C25.6349 8.29153 22.9986 6.85629 20.1538 6.54479V4H17.8462V6.54479C15.0014 6.85629 12.3651 8.29153 10.447 10.573C8.52882 12.8544 7.46512 15.82 7.46154 18.8963V23.3478L4.33808 26.7082C4.12167 26.941 4.00007 27.2567 4 27.5859V31.3099C4 31.6392 4.12157 31.9549 4.33795 32.1877C4.55434 32.4205 4.84783 32.5513 5.15385 32.5513H13.2308V33.5158C13.2057 35.0907 13.7216 36.6201 14.6797 37.811C15.6379 39.0019 16.9708 39.7706 18.4231 39.9697C19.2252 40.0552 20.0351 39.9593 20.8007 39.6879C21.5663 39.4165 22.2706 38.9757 22.8683 38.3939C23.466 37.8121 23.944 37.1022 24.2714 36.3097C24.5987 35.5173 24.7683 34.6599 24.7692 33.7927V32.5513H32.8462C33.1522 32.5513 33.4457 32.4205 33.662 32.1877C33.8784 31.9549 34 31.6392 34 31.3099V27.5859C33.9999 27.2567 33.8783 26.941 33.6619 26.7082ZM22.4615 33.7927C22.4615 34.7803 22.0968 35.7276 21.4477 36.426C20.7985 37.1244 19.9181 37.5167 19 37.5167C18.0819 37.5167 17.2015 37.1244 16.5523 36.426C15.9032 35.7276 15.5385 34.7803 15.5385 33.7927V32.5513H22.4615V33.7927ZM31.6923 30.0686H6.30769V28.0998L9.43115 24.7394C9.64756 24.5067 9.76917 24.191 9.76923 23.8618V18.8963C9.76923 16.2625 10.7418 13.7365 12.4729 11.8741C14.204 10.0117 16.5518 8.96544 19 8.96544C21.4482 8.96544 23.796 10.0117 25.5271 11.8741C27.2582 13.7365 28.2308 16.2625 28.2308 18.8963V23.8618C28.2308 24.191 28.3524 24.5067 28.5688 24.7394L31.6923 28.0998V30.0686Z" fill="black"/>
</svg>
